<?xml version="1.0" encoding="UTF-8" standalone="no"?>
<!DOCTYPE svg PUBLIC "-//W3C//DTD SVG 1.1//EN"
 "http://www.w3.org/Graphics/SVG/1.1/DTD/svg11.dtd">
<!-- Generated by graphviz version 8.1.0 (20230707.0739)
 -->
<!-- Title: mygraph Pages: 1 -->
<svg width="728pt" height="373pt"
 viewBox="0.00 0.00 728.48 373.48" xmlns="http://www.w3.org/2000/svg" xmlns:xlink="http://www.w3.org/1999/xlink">
<g id="graph0" class="graph" transform="scale(1 1) rotate(0) translate(4 369.48)">
<title>mygraph</title>
<polygon fill="white" stroke="none" points="-4,4 -4,-369.48 724.48,-369.48 724.48,4 -4,4"/>
<g id="clust6" class="cluster">
<title>cluster_1</title>
<polygon fill="none" stroke="black" stroke-dasharray="1,5" points="61.53,-228.74 61.53,-303.74 427.53,-303.74 427.53,-228.74 61.53,-228.74"/>
<text text-anchor="middle" x="129.16" y="-286.44" font-family="Helvetica,Arial,sans-serif" font-size="14.00">Calling vs reference</text>
</g>
<g id="clust7" class="cluster">
<title>cluster_2</title>
<polygon fill="none" stroke="black" stroke-dasharray="1,5" points="441.53,-64 441.53,-139 684.53,-139 684.53,-64 441.53,-64"/>
<text text-anchor="middle" x="491.53" y="-121.7" font-family="Helvetica,Arial,sans-serif" font-size="14.00">Calling vs WT</text>
</g>
<!-- reference -->
<g id="node1" class="node">
<title>reference</title>
<ellipse fill="none" stroke="black" cx="257.53" cy="-338.61" rx="47.45" ry="18"/>
<text text-anchor="middle" x="257.53" y="-332.81" font-family="Helvetica,Arial,sans-serif" font-size="14.00">reference</text>
</g>
<!-- c1r -->
<g id="node5" class="node">
<title>c1r</title>
<polygon fill="none" stroke="black" points="173.78,-272.74 69.28,-272.74 69.28,-236.74 173.78,-236.74 173.78,-272.74"/>
<text text-anchor="middle" x="121.53" y="-248.94" font-family="Helvetica,Arial,sans-serif" font-size="14.00">calling pipeline</text>
</g>
<!-- reference&#45;&gt;c1r -->
<g id="edge7" class="edge">
<title>reference&#45;&gt;c1r</title>
<path fill="none" stroke="black" d="M228.5,-324.1C219.84,-320.1 210.31,-315.72 201.53,-311.74 193.56,-308.13 191.05,-308.23 183.53,-303.74 171.96,-296.83 160.07,-288.08 149.83,-279.96"/>
<polygon fill="black" stroke="black" points="152.28,-276.63 142.31,-273.04 147.87,-282.06 152.28,-276.63"/>
</g>
<!-- c2r -->
<g id="node6" class="node">
<title>c2r</title>
<polygon fill="none" stroke="black" points="296.78,-272.74 192.28,-272.74 192.28,-236.74 296.78,-236.74 296.78,-272.74"/>
<text text-anchor="middle" x="244.53" y="-248.94" font-family="Helvetica,Arial,sans-serif" font-size="14.00">calling pipeline</text>
</g>
<!-- reference&#45;&gt;c2r -->
<g id="edge8" class="edge">
<title>reference&#45;&gt;c2r</title>
<path fill="none" stroke="black" d="M254.77,-320.25C253.09,-309.61 250.89,-295.75 248.96,-283.61"/>
<polygon fill="black" stroke="black" points="252.31,-283.4 247.28,-274.08 245.4,-284.5 252.31,-283.4"/>
</g>
<!-- c3r -->
<g id="node7" class="node">
<title>c3r</title>
<polygon fill="none" stroke="black" points="419.78,-272.74 315.28,-272.74 315.28,-236.74 419.78,-236.74 419.78,-272.74"/>
<text text-anchor="middle" x="367.53" y="-248.94" font-family="Helvetica,Arial,sans-serif" font-size="14.00">calling pipeline</text>
</g>
<!-- reference&#45;&gt;c3r -->
<g id="edge9" class="edge">
<title>reference&#45;&gt;c3r</title>
<path fill="none" stroke="black" d="M279.66,-322.3C287.85,-316.56 297.17,-309.92 305.53,-303.74 315.94,-296.04 327.18,-287.44 337.19,-279.66"/>
<polygon fill="black" stroke="black" points="338.89,-282 344.62,-273.09 334.58,-276.48 338.89,-282"/>
</g>
<!-- s1 -->
<g id="node2" class="node">
<title>s1</title>
<ellipse fill="none" stroke="black" cx="108.53" cy="-338.61" rx="83.97" ry="26.87"/>
<text text-anchor="middle" x="108.53" y="-340.31" font-family="Helvetica,Arial,sans-serif" font-size="14.00">Sample1.FASTQ</text>
<text text-anchor="middle" x="108.53" y="-325.31" font-family="Helvetica,Arial,sans-serif" font-size="14.00">(WT)</text>
</g>
<!-- s1&#45;&gt;c1r -->
<g id="edge1" class="edge">
<title>s1&#45;&gt;c1r</title>
<path fill="none" stroke="black" d="M112.65,-311.71C114.05,-302.88 115.62,-292.97 117.05,-283.97"/>
<polygon fill="black" stroke="black" points="120.65,-284.63 118.76,-274.2 113.73,-283.53 120.65,-284.63"/>
</g>
<!-- s2 -->
<g id="node3" class="node">
<title>s2</title>
<ellipse fill="none" stroke="black" cx="427.53" cy="-338.61" rx="77.18" ry="18"/>
<text text-anchor="middle" x="427.53" y="-332.81" font-family="Helvetica,Arial,sans-serif" font-size="14.00">Sample2.FASTQ</text>
</g>
<!-- s2&#45;&gt;c2r -->
<g id="edge3" class="edge">
<title>s2&#45;&gt;c2r</title>
<path fill="none" stroke="black" d="M369.82,-326.28C349.2,-321 326.22,-313.64 306.53,-303.74 294.08,-297.48 281.68,-288.56 271.27,-280.1"/>
<polygon fill="black" stroke="black" points="273.95,-276.93 264.05,-273.17 269.44,-282.29 273.95,-276.93"/>
</g>
<!-- c21 -->
<g id="node8" class="node">
<title>c21</title>
<polygon fill="none" stroke="black" points="553.78,-108 449.28,-108 449.28,-72 553.78,-72 553.78,-108"/>
<text text-anchor="middle" x="501.53" y="-84.2" font-family="Helvetica,Arial,sans-serif" font-size="14.00">calling pipeline</text>
</g>
<!-- s2&#45;&gt;c21 -->
<g id="edge13" class="edge">
<title>s2&#45;&gt;c21</title>
<path fill="none" stroke="black" d="M454.55,-321.31C488.58,-299 545.41,-255.41 568.53,-200.74 577.84,-178.74 578.65,-168.64 568.53,-147 564.69,-138.79 549.83,-126.04 535.08,-114.78"/>
<polygon fill="black" stroke="black" points="537.59,-111.54 527.49,-108.36 533.41,-117.15 537.59,-111.54"/>
</g>
<!-- s3 -->
<g id="node4" class="node">
<title>s3</title>
<ellipse fill="none" stroke="black" cx="612.53" cy="-338.61" rx="77.18" ry="18"/>
<text text-anchor="middle" x="612.53" y="-332.81" font-family="Helvetica,Arial,sans-serif" font-size="14.00">Sample3.FASTQ</text>
</g>
<!-- s3&#45;&gt;c3r -->
<g id="edge5" class="edge">
<title>s3&#45;&gt;c3r</title>
<path fill="none" stroke="black" d="M569.58,-323.26C530.95,-310.35 473.74,-291.23 430.05,-276.63"/>
<polygon fill="black" stroke="black" points="431.41,-273.06 420.82,-273.21 429.19,-279.7 431.41,-273.06"/>
</g>
<!-- c31 -->
<g id="node9" class="node">
<title>c31</title>
<polygon fill="none" stroke="black" points="676.78,-108 572.28,-108 572.28,-72 676.78,-72 676.78,-108"/>
<text text-anchor="middle" x="624.53" y="-84.2" font-family="Helvetica,Arial,sans-serif" font-size="14.00">calling pipeline</text>
</g>
<!-- s3&#45;&gt;c31 -->
<g id="edge15" class="edge">
<title>s3&#45;&gt;c31</title>
<path fill="none" stroke="black" d="M613.38,-320.27C615.42,-278.26 620.65,-170.73 623.16,-119.27"/>
<polygon fill="black" stroke="black" points="626.7,-119.48 623.69,-109.32 619.71,-119.14 626.7,-119.48"/>
</g>
<!-- s1r -->
<g id="node10" class="node">
<title>s1r</title>
<ellipse fill="none" stroke="black" cx="63.53" cy="-18" rx="63.53" ry="18"/>
<text text-anchor="middle" x="63.53" y="-12.2" font-family="Helvetica,Arial,sans-serif" font-size="14.00">s1 vs ref.VCF</text>
</g>
<!-- c1r&#45;&gt;s1r -->
<g id="edge2" class="edge">
<title>c1r&#45;&gt;s1r</title>
<path fill="none" stroke="black" d="M117.27,-236.48C107.32,-196.21 82.49,-95.74 70.39,-46.75"/>
<polygon fill="black" stroke="black" points="73.6,-46.15 67.8,-37.29 66.8,-47.83 73.6,-46.15"/>
</g>
<!-- s1cons -->
<g id="node15" class="node">
<title>s1cons</title>
<ellipse fill="none" stroke="black" stroke-dasharray="5,2" cx="470.53" cy="-173.87" rx="89.27" ry="26.87"/>
<text text-anchor="middle" x="470.53" y="-175.57" font-family="Helvetica,Arial,sans-serif" font-size="14.00">Sample1 (WT)</text>
<text text-anchor="middle" x="470.53" y="-160.57" font-family="Helvetica,Arial,sans-serif" font-size="14.00">consensus.FASTA</text>
</g>
<!-- c1r&#45;&gt;s1cons -->
<g id="edge10" class="edge">
<title>c1r&#45;&gt;s1cons</title>
<path fill="none" stroke="black" stroke-dasharray="5,2" d="M161.48,-236.29C168.73,-233.51 176.29,-230.86 183.53,-228.74 247.76,-209.96 322.05,-196.23 378.96,-187.33"/>
<polygon fill="black" stroke="black" points="379.38,-190.65 388.74,-185.67 378.32,-183.73 379.38,-190.65"/>
</g>
<!-- s2r -->
<g id="node11" class="node">
<title>s2r</title>
<ellipse fill="none" stroke="black" cx="208.53" cy="-18" rx="63.53" ry="18"/>
<text text-anchor="middle" x="208.53" y="-12.2" font-family="Helvetica,Arial,sans-serif" font-size="14.00">s2 vs ref.VCF</text>
</g>
<!-- c2r&#45;&gt;s2r -->
<g id="edge4" class="edge">
<title>c2r&#45;&gt;s2r</title>
<path fill="none" stroke="black" d="M241.88,-236.48C235.72,-196.29 220.37,-96.16 212.83,-47.06"/>
<polygon fill="black" stroke="black" points="216.16,-46.64 211.18,-37.29 209.24,-47.7 216.16,-46.64"/>
</g>
<!-- s3r -->
<g id="node12" class="node">
<title>s3r</title>
<ellipse fill="none" stroke="black" cx="353.53" cy="-18" rx="63.53" ry="18"/>
<text text-anchor="middle" x="353.53" y="-12.2" font-family="Helvetica,Arial,sans-serif" font-size="14.00">s3 vs ref.VCF</text>
</g>
<!-- c3r&#45;&gt;s3r -->
<g id="edge6" class="edge">
<title>c3r&#45;&gt;s3r</title>
<path fill="none" stroke="black" d="M366.5,-236.48C364.11,-196.29 358.13,-96.16 355.21,-47.06"/>
<polygon fill="black" stroke="black" points="358.65,-47.06 354.56,-37.29 351.66,-47.48 358.65,-47.06"/>
</g>
<!-- s21 -->
<g id="node13" class="node">
<title>s21</title>
<ellipse fill="none" stroke="black" cx="501.53" cy="-18" rx="66.94" ry="18"/>
<text text-anchor="middle" x="501.53" y="-12.2" font-family="Helvetica,Arial,sans-serif" font-size="14.00">s2 vs WT.VCF</text>
</g>
<!-- c21&#45;&gt;s21 -->
<g id="edge14" class="edge">
<title>c21&#45;&gt;s21</title>
<path fill="none" stroke="black" d="M501.53,-71.7C501.53,-64.24 501.53,-55.32 501.53,-46.97"/>
<polygon fill="black" stroke="black" points="505.03,-47.1 501.53,-37.1 498.03,-47.1 505.03,-47.1"/>
</g>
<!-- s31 -->
<g id="node14" class="node">
<title>s31</title>
<ellipse fill="none" stroke="black" cx="653.53" cy="-18" rx="66.94" ry="18"/>
<text text-anchor="middle" x="653.53" y="-12.2" font-family="Helvetica,Arial,sans-serif" font-size="14.00">s3 vs WT.VCF</text>
</g>
<!-- c31&#45;&gt;s31 -->
<g id="edge16" class="edge">
<title>c31&#45;&gt;s31</title>
<path fill="none" stroke="black" d="M631.7,-71.7C634.9,-63.98 638.74,-54.71 642.3,-46.11"/>
<polygon fill="black" stroke="black" points="645.85,-47.68 646.45,-37.1 639.38,-45 645.85,-47.68"/>
</g>
<!-- s1cons&#45;&gt;c21 -->
<g id="edge11" class="edge">
<title>s1cons&#45;&gt;c21</title>
<path fill="none" stroke="black" d="M480.34,-146.97C483.76,-137.94 487.6,-127.79 491.07,-118.63"/>
<polygon fill="black" stroke="black" points="494.65,-120.05 494.92,-109.46 488.11,-117.58 494.65,-120.05"/>
</g>
<!-- s1cons&#45;&gt;c31 -->
<g id="edge12" class="edge">
<title>s1cons&#45;&gt;c31</title>
<path fill="none" stroke="black" d="M530.61,-153.78C541.5,-149.48 552.56,-144.52 562.53,-139 574.53,-132.35 586.69,-123.5 597.03,-115.21"/>
<polygon fill="black" stroke="black" points="598.75,-117.5 604.24,-108.44 594.3,-112.1 598.75,-117.5"/>
</g>
</g>
</svg>
