<?xml version="1.0" encoding="UTF-8" standalone="no"?>
<!DOCTYPE svg PUBLIC "-//W3C//DTD SVG 1.1//EN"
 "http://www.w3.org/Graphics/SVG/1.1/DTD/svg11.dtd">
<!-- Generated by graphviz version 8.1.0 (20230707.0739)
 -->
<!-- Title: mygraph Pages: 1 -->
<svg width="757pt" height="350pt"
 viewBox="0.00 0.00 756.74 349.74" xmlns="http://www.w3.org/2000/svg" xmlns:xlink="http://www.w3.org/1999/xlink">
<g id="graph0" class="graph" transform="scale(1 1) rotate(0) translate(4 345.74)">
<title>mygraph</title>
<polygon fill="white" stroke="none" points="-4,4 -4,-345.74 752.74,-345.74 752.74,4 -4,4"/>
<!-- s1 -->
<g id="node1" class="node">
<title>s1</title>
<ellipse fill="none" stroke="black" cx="408.18" cy="-314.87" rx="91.92" ry="26.87"/>
<text text-anchor="middle" x="408.18" y="-316.57" font-family="Helvetica,Arial,sans-serif" font-size="14.00">Sample1.FASTQ</text>
<text text-anchor="middle" x="408.18" y="-301.57" font-family="Helvetica,Arial,sans-serif" font-size="14.00">(reference sample)</text>
</g>
<!-- c1r -->
<g id="node5" class="node">
<title>c1r</title>
<polygon fill="none" stroke="black" points="378.68,-252 281.68,-252 281.68,-216 378.68,-216 378.68,-252"/>
<text text-anchor="middle" x="330.18" y="-228.2" font-family="Helvetica,Arial,sans-serif" font-size="14.00">calling pipline</text>
</g>
<!-- s1&#45;&gt;c1r -->
<g id="edge1" class="edge">
<title>s1&#45;&gt;c1r</title>
<path fill="none" stroke="black" d="M383.5,-288.92C374.39,-279.7 364.06,-269.26 354.94,-260.04"/>
<polygon fill="black" stroke="black" points="357.82,-257.96 348.3,-253.31 352.84,-262.88 357.82,-257.96"/>
</g>
<!-- s2 -->
<g id="node2" class="node">
<title>s2</title>
<ellipse fill="none" stroke="black" cx="77.18" cy="-314.87" rx="77.18" ry="18"/>
<text text-anchor="middle" x="77.18" y="-309.07" font-family="Helvetica,Arial,sans-serif" font-size="14.00">Sample2.FASTQ</text>
</g>
<!-- c2r -->
<g id="node6" class="node">
<title>c2r</title>
<polygon fill="none" stroke="black" points="194.68,-252 97.68,-252 97.68,-216 194.68,-216 194.68,-252"/>
<text text-anchor="middle" x="146.18" y="-228.2" font-family="Helvetica,Arial,sans-serif" font-size="14.00">calling pipline</text>
</g>
<!-- s2&#45;&gt;c2r -->
<g id="edge2" class="edge">
<title>s2&#45;&gt;c2r</title>
<path fill="none" stroke="black" d="M92.15,-296.76C101.4,-286.18 113.44,-272.42 123.81,-260.57"/>
<polygon fill="black" stroke="black" points="127.05,-263.18 131,-253.35 121.78,-258.57 127.05,-263.18"/>
</g>
<!-- c21 -->
<g id="node8" class="node">
<title>c21</title>
<polygon fill="none" stroke="black" points="300.68,-108 203.68,-108 203.68,-72 300.68,-72 300.68,-108"/>
<text text-anchor="middle" x="252.18" y="-84.2" font-family="Helvetica,Arial,sans-serif" font-size="14.00">calling pipline</text>
</g>
<!-- s2&#45;&gt;c21 -->
<g id="edge13" class="edge">
<title>s2&#45;&gt;c21</title>
<path fill="none" stroke="black" d="M76.68,-296.42C76.72,-261.83 82.05,-184.43 126.18,-144 144.92,-126.83 170.03,-114.75 192.91,-106.51"/>
<polygon fill="black" stroke="black" points="193.89,-109.53 202.23,-102.99 191.63,-102.9 193.89,-109.53"/>
</g>
<!-- s3 -->
<g id="node3" class="node">
<title>s3</title>
<ellipse fill="none" stroke="black" cx="611.18" cy="-314.87" rx="77.18" ry="18"/>
<text text-anchor="middle" x="611.18" y="-309.07" font-family="Helvetica,Arial,sans-serif" font-size="14.00">Sample3.FASTQ</text>
</g>
<!-- c3r -->
<g id="node7" class="node">
<title>c3r</title>
<polygon fill="none" stroke="black" points="590.68,-252 493.68,-252 493.68,-216 590.68,-216 590.68,-252"/>
<text text-anchor="middle" x="542.18" y="-228.2" font-family="Helvetica,Arial,sans-serif" font-size="14.00">calling pipline</text>
</g>
<!-- s3&#45;&gt;c3r -->
<g id="edge3" class="edge">
<title>s3&#45;&gt;c3r</title>
<path fill="none" stroke="black" d="M596.21,-296.76C586.96,-286.18 574.92,-272.42 564.55,-260.57"/>
<polygon fill="black" stroke="black" points="566.58,-258.57 557.36,-253.35 561.31,-263.18 566.58,-258.57"/>
</g>
<!-- c31 -->
<g id="node9" class="node">
<title>c31</title>
<polygon fill="none" stroke="black" points="667.68,-108 570.68,-108 570.68,-72 667.68,-72 667.68,-108"/>
<text text-anchor="middle" x="619.18" y="-84.2" font-family="Helvetica,Arial,sans-serif" font-size="14.00">calling pipline</text>
</g>
<!-- s3&#45;&gt;c31 -->
<g id="edge15" class="edge">
<title>s3&#45;&gt;c31</title>
<path fill="none" stroke="black" d="M611.81,-296.38C613.19,-257.97 616.49,-165.97 618.17,-119.25"/>
<polygon fill="black" stroke="black" points="621.69,-119.53 618.56,-109.41 614.7,-119.27 621.69,-119.53"/>
</g>
<!-- reference -->
<g id="node4" class="node">
<title>reference</title>
<ellipse fill="none" stroke="black" cx="251.18" cy="-314.87" rx="47.45" ry="18"/>
<text text-anchor="middle" x="251.18" y="-309.07" font-family="Helvetica,Arial,sans-serif" font-size="14.00">reference</text>
</g>
<!-- reference&#45;&gt;c1r -->
<g id="edge4" class="edge">
<title>reference&#45;&gt;c1r</title>
<path fill="none" stroke="black" d="M267.55,-297.53C278.37,-286.72 292.78,-272.34 305.04,-260.09"/>
<polygon fill="black" stroke="black" points="307.13,-262.96 311.74,-253.42 302.19,-258 307.13,-262.96"/>
</g>
<!-- reference&#45;&gt;c2r -->
<g id="edge5" class="edge">
<title>reference&#45;&gt;c2r</title>
<path fill="none" stroke="black" d="M230.44,-298.29C215.47,-287.05 195,-271.67 177.98,-258.88"/>
<polygon fill="black" stroke="black" points="180.54,-255.68 170.44,-252.47 176.33,-261.28 180.54,-255.68"/>
</g>
<!-- reference&#45;&gt;c3r -->
<g id="edge6" class="edge">
<title>reference&#45;&gt;c3r</title>
<path fill="none" stroke="black" d="M278.62,-299.79C287.57,-295.58 297.65,-291.24 307.18,-288 365.54,-268.19 434.57,-253.62 482.66,-244.83"/>
<polygon fill="black" stroke="black" points="482.98,-248.15 492.2,-242.93 481.74,-241.26 482.98,-248.15"/>
</g>
<!-- s1r -->
<g id="node10" class="node">
<title>s1r</title>
<ellipse fill="none" stroke="black" cx="397.18" cy="-18" rx="63.53" ry="18"/>
<text text-anchor="middle" x="397.18" y="-12.2" font-family="Helvetica,Arial,sans-serif" font-size="14.00">s1 vs ref.VCF</text>
</g>
<!-- c1r&#45;&gt;s1r -->
<g id="edge7" class="edge">
<title>c1r&#45;&gt;s1r</title>
<path fill="none" stroke="black" d="M352.15,-215.7C362.46,-206.3 373.84,-193.79 380.18,-180 400.02,-136.82 401.07,-80.45 399.5,-47.15"/>
<polygon fill="black" stroke="black" points="402.94,-47.17 398.85,-37.39 395.96,-47.58 402.94,-47.17"/>
</g>
<!-- s1cons -->
<g id="node15" class="node">
<title>s1cons</title>
<ellipse fill="none" stroke="black" stroke-dasharray="5,2" cx="253.18" cy="-162" rx="118.13" ry="18"/>
<text text-anchor="middle" x="253.18" y="-156.2" font-family="Helvetica,Arial,sans-serif" font-size="14.00">sample1 consensus.FASTA</text>
</g>
<!-- c1r&#45;&gt;s1cons -->
<g id="edge10" class="edge">
<title>c1r&#45;&gt;s1cons</title>
<path fill="none" stroke="black" stroke-dasharray="5,2" d="M311.15,-215.7C301.73,-207.14 290.2,-196.66 279.92,-187.3"/>
<polygon fill="black" stroke="black" points="282.75,-185.24 273,-181.1 278.04,-190.42 282.75,-185.24"/>
</g>
<!-- s2r -->
<g id="node11" class="node">
<title>s2r</title>
<ellipse fill="none" stroke="black" cx="107.18" cy="-18" rx="63.53" ry="18"/>
<text text-anchor="middle" x="107.18" y="-12.2" font-family="Helvetica,Arial,sans-serif" font-size="14.00">s2 vs ref.VCF</text>
</g>
<!-- c2r&#45;&gt;s2r -->
<g id="edge8" class="edge">
<title>c2r&#45;&gt;s2r</title>
<path fill="none" stroke="black" d="M138.42,-215.67C134.16,-205.48 129.16,-192.23 126.18,-180 115.02,-134.22 110.33,-79.45 108.42,-47.04"/>
<polygon fill="black" stroke="black" points="111.87,-46.96 107.84,-37.16 104.88,-47.34 111.87,-46.96"/>
</g>
<!-- s3r -->
<g id="node12" class="node">
<title>s3r</title>
<ellipse fill="none" stroke="black" cx="542.18" cy="-18" rx="63.53" ry="18"/>
<text text-anchor="middle" x="542.18" y="-12.2" font-family="Helvetica,Arial,sans-serif" font-size="14.00">s3 vs ref.VCF</text>
</g>
<!-- c3r&#45;&gt;s3r -->
<g id="edge9" class="edge">
<title>c3r&#45;&gt;s3r</title>
<path fill="none" stroke="black" d="M542.18,-215.85C542.18,-178.99 542.18,-91.92 542.18,-46.96"/>
<polygon fill="black" stroke="black" points="545.68,-47.23 542.18,-37.23 538.68,-47.23 545.68,-47.23"/>
</g>
<!-- s21 -->
<g id="node13" class="node">
<title>s21</title>
<ellipse fill="none" stroke="black" cx="252.18" cy="-18" rx="62.56" ry="18"/>
<text text-anchor="middle" x="252.18" y="-12.2" font-family="Helvetica,Arial,sans-serif" font-size="14.00">s2 vs s1.VCF</text>
</g>
<!-- c21&#45;&gt;s21 -->
<g id="edge14" class="edge">
<title>c21&#45;&gt;s21</title>
<path fill="none" stroke="black" d="M252.18,-71.7C252.18,-64.24 252.18,-55.32 252.18,-46.97"/>
<polygon fill="black" stroke="black" points="255.68,-47.1 252.18,-37.1 248.68,-47.1 255.68,-47.1"/>
</g>
<!-- s31 -->
<g id="node14" class="node">
<title>s31</title>
<ellipse fill="none" stroke="black" cx="686.18" cy="-18" rx="62.56" ry="18"/>
<text text-anchor="middle" x="686.18" y="-12.2" font-family="Helvetica,Arial,sans-serif" font-size="14.00">s3 vs s1.VCF</text>
</g>
<!-- c31&#45;&gt;s31 -->
<g id="edge16" class="edge">
<title>c31&#45;&gt;s31</title>
<path fill="none" stroke="black" d="M635.74,-71.7C643.89,-63.18 653.86,-52.76 662.78,-43.45"/>
<polygon fill="black" stroke="black" points="664.88,-46.27 669.27,-36.62 659.83,-41.43 664.88,-46.27"/>
</g>
<!-- s1cons&#45;&gt;c21 -->
<g id="edge11" class="edge">
<title>s1cons&#45;&gt;c21</title>
<path fill="none" stroke="black" d="M252.93,-143.7C252.83,-136.24 252.7,-127.32 252.58,-118.97"/>
<polygon fill="black" stroke="black" points="256.07,-119.05 252.42,-109.1 249.07,-119.15 256.07,-119.05"/>
</g>
<!-- s1cons&#45;&gt;c31 -->
<g id="edge12" class="edge">
<title>s1cons&#45;&gt;c31</title>
<path fill="none" stroke="black" d="M324.62,-147.34C393.15,-134.23 495.44,-114.67 559.68,-102.38"/>
<polygon fill="black" stroke="black" points="560.27,-105.64 569.43,-100.32 558.95,-98.76 560.27,-105.64"/>
</g>
</g>
</svg>
