<?xml version="1.0" encoding="UTF-8" standalone="no"?>
<!DOCTYPE svg PUBLIC "-//W3C//DTD SVG 1.1//EN"
 "http://www.w3.org/Graphics/SVG/1.1/DTD/svg11.dtd">
<!-- Generated by graphviz version 8.1.0 (20230707.0739)
 -->
<!-- Title: mygraph Pages: 1 -->
<svg width="746pt" height="350pt"
 viewBox="0.00 0.00 745.67 349.74" xmlns="http://www.w3.org/2000/svg" xmlns:xlink="http://www.w3.org/1999/xlink">
<g id="graph0" class="graph" transform="scale(1 1) rotate(0) translate(4 345.74)">
<title>mygraph</title>
<polygon fill="white" stroke="none" points="-4,4 -4,-345.74 741.67,-345.74 741.67,4 -4,4"/>
<!-- reference -->
<g id="node1" class="node">
<title>reference</title>
<ellipse fill="none" stroke="black" cx="497.49" cy="-314.87" rx="47.45" ry="18"/>
<text text-anchor="middle" x="497.49" y="-309.07" font-family="Helvetica,Arial,sans-serif" font-size="14.00">reference</text>
</g>
<!-- c1r -->
<g id="node5" class="node">
<title>c1r</title>
<polygon fill="none" stroke="black" points="231.74,-252 127.24,-252 127.24,-216 231.74,-216 231.74,-252"/>
<text text-anchor="middle" x="179.49" y="-228.2" font-family="Helvetica,Arial,sans-serif" font-size="14.00">calling pipeline</text>
</g>
<!-- reference&#45;&gt;c1r -->
<g id="edge7" class="edge">
<title>reference&#45;&gt;c1r</title>
<path fill="none" stroke="black" d="M469.87,-299.82C460.7,-295.56 450.31,-291.18 440.49,-288 374.44,-266.61 296.08,-252.08 242.58,-243.72"/>
<polygon fill="black" stroke="black" points="243.3,-240.13 232.88,-242.08 242.24,-247.05 243.3,-240.13"/>
</g>
<!-- c2r -->
<g id="node6" class="node">
<title>c2r</title>
<polygon fill="none" stroke="black" points="428.74,-252 324.24,-252 324.24,-216 428.74,-216 428.74,-252"/>
<text text-anchor="middle" x="376.49" y="-228.2" font-family="Helvetica,Arial,sans-serif" font-size="14.00">calling pipeline</text>
</g>
<!-- reference&#45;&gt;c2r -->
<g id="edge8" class="edge">
<title>reference&#45;&gt;c2r</title>
<path fill="none" stroke="black" d="M474.45,-298.85C456.93,-287.43 432.5,-271.5 412.42,-258.42"/>
<polygon fill="black" stroke="black" points="414.54,-254.97 404.25,-252.44 410.71,-260.83 414.54,-254.97"/>
</g>
<!-- c3r -->
<g id="node7" class="node">
<title>c3r</title>
<polygon fill="none" stroke="black" points="653.74,-252 549.24,-252 549.24,-216 653.74,-216 653.74,-252"/>
<text text-anchor="middle" x="601.49" y="-228.2" font-family="Helvetica,Arial,sans-serif" font-size="14.00">calling pipeline</text>
</g>
<!-- reference&#45;&gt;c3r -->
<g id="edge9" class="edge">
<title>reference&#45;&gt;c3r</title>
<path fill="none" stroke="black" d="M518.04,-298.29C532.86,-287.05 553.14,-271.67 570,-258.88"/>
<polygon fill="black" stroke="black" points="571.6,-261.3 577.45,-252.47 567.37,-255.73 571.6,-261.3"/>
</g>
<!-- s1 -->
<g id="node2" class="node">
<title>s1</title>
<ellipse fill="none" stroke="black" cx="167.49" cy="-314.87" rx="91.92" ry="26.87"/>
<text text-anchor="middle" x="167.49" y="-316.57" font-family="Helvetica,Arial,sans-serif" font-size="14.00">Sample1.FASTQ</text>
<text text-anchor="middle" x="167.49" y="-301.57" font-family="Helvetica,Arial,sans-serif" font-size="14.00">(reference sample)</text>
</g>
<!-- s1&#45;&gt;c1r -->
<g id="edge1" class="edge">
<title>s1&#45;&gt;c1r</title>
<path fill="none" stroke="black" d="M171.49,-287.61C172.69,-279.69 174.02,-270.97 175.24,-262.94"/>
<polygon fill="black" stroke="black" points="178.83,-263.63 176.87,-253.22 171.91,-262.58 178.83,-263.63"/>
</g>
<!-- s2 -->
<g id="node3" class="node">
<title>s2</title>
<ellipse fill="none" stroke="black" cx="354.49" cy="-314.87" rx="77.18" ry="18"/>
<text text-anchor="middle" x="354.49" y="-309.07" font-family="Helvetica,Arial,sans-serif" font-size="14.00">Sample2.FASTQ</text>
</g>
<!-- s2&#45;&gt;c2r -->
<g id="edge3" class="edge">
<title>s2&#45;&gt;c2r</title>
<path fill="none" stroke="black" d="M359.27,-296.76C362.04,-286.8 365.61,-274.01 368.78,-262.66"/>
<polygon fill="black" stroke="black" points="372.34,-263.93 371.65,-253.35 365.59,-262.04 372.34,-263.93"/>
</g>
<!-- c21 -->
<g id="node8" class="node">
<title>c21</title>
<polygon fill="none" stroke="black" points="117.74,-108 13.24,-108 13.24,-72 117.74,-72 117.74,-108"/>
<text text-anchor="middle" x="65.49" y="-84.2" font-family="Helvetica,Arial,sans-serif" font-size="14.00">calling pipeline</text>
</g>
<!-- s2&#45;&gt;c21 -->
<g id="edge13" class="edge">
<title>s2&#45;&gt;c21</title>
<path fill="none" stroke="black" d="M309.55,-299.83C296.36,-295.85 281.89,-291.62 268.49,-288 146.51,-255.04 66.27,-290.79 5.49,-180 -2.2,-165.97 -1.09,-158.59 5.49,-144 10.48,-132.94 19.04,-123.26 28.16,-115.31"/>
<polygon fill="black" stroke="black" points="30.02,-117.5 35.6,-108.5 25.62,-112.05 30.02,-117.5"/>
</g>
<!-- s3 -->
<g id="node4" class="node">
<title>s3</title>
<ellipse fill="none" stroke="black" cx="660.49" cy="-314.87" rx="77.18" ry="18"/>
<text text-anchor="middle" x="660.49" y="-309.07" font-family="Helvetica,Arial,sans-serif" font-size="14.00">Sample3.FASTQ</text>
</g>
<!-- s3&#45;&gt;c3r -->
<g id="edge5" class="edge">
<title>s3&#45;&gt;c3r</title>
<path fill="none" stroke="black" d="M647.69,-296.76C639.86,-286.29 629.68,-272.69 620.88,-260.92"/>
<polygon fill="black" stroke="black" points="623.27,-259.26 614.47,-253.35 617.66,-263.46 623.27,-259.26"/>
</g>
<!-- c31 -->
<g id="node9" class="node">
<title>c31</title>
<polygon fill="none" stroke="black" points="572.74,-108 468.24,-108 468.24,-72 572.74,-72 572.74,-108"/>
<text text-anchor="middle" x="520.49" y="-84.2" font-family="Helvetica,Arial,sans-serif" font-size="14.00">calling pipeline</text>
</g>
<!-- s3&#45;&gt;c31 -->
<g id="edge15" class="edge">
<title>s3&#45;&gt;c31</title>
<path fill="none" stroke="black" d="M665.13,-296.71C669.66,-276.44 674.32,-242.17 662.49,-216 642.09,-170.86 596.44,-135.52 562.37,-114.1"/>
<polygon fill="black" stroke="black" points="564.46,-110.67 554.1,-108.44 560.81,-116.64 564.46,-110.67"/>
</g>
<!-- s1r -->
<g id="node10" class="node">
<title>s1r</title>
<ellipse fill="none" stroke="black" cx="231.49" cy="-18" rx="63.53" ry="18"/>
<text text-anchor="middle" x="231.49" y="-12.2" font-family="Helvetica,Arial,sans-serif" font-size="14.00">s1 vs ref.VCF</text>
</g>
<!-- c1r&#45;&gt;s1r -->
<g id="edge2" class="edge">
<title>c1r&#45;&gt;s1r</title>
<path fill="none" stroke="black" d="M221.52,-215.52C236.27,-207.1 251.22,-195.41 259.49,-180 282.61,-136.96 261.96,-78.98 245.96,-45.63"/>
<polygon fill="black" stroke="black" points="248.81,-44.49 241.2,-37.12 242.55,-47.63 248.81,-44.49"/>
</g>
<!-- s1cons -->
<g id="node15" class="node">
<title>s1cons</title>
<ellipse fill="none" stroke="black" stroke-dasharray="5,2" cx="132.49" cy="-162" rx="118.13" ry="18"/>
<text text-anchor="middle" x="132.49" y="-156.2" font-family="Helvetica,Arial,sans-serif" font-size="14.00">sample1 consensus.FASTA</text>
</g>
<!-- c1r&#45;&gt;s1cons -->
<g id="edge10" class="edge">
<title>c1r&#45;&gt;s1cons</title>
<path fill="none" stroke="black" stroke-dasharray="5,2" d="M167.87,-215.7C162.47,-207.64 155.92,-197.89 149.94,-188.98"/>
<polygon fill="black" stroke="black" points="152.46,-187.46 143.98,-181.1 146.64,-191.36 152.46,-187.46"/>
</g>
<!-- s2r -->
<g id="node11" class="node">
<title>s2r</title>
<ellipse fill="none" stroke="black" cx="376.49" cy="-18" rx="63.53" ry="18"/>
<text text-anchor="middle" x="376.49" y="-12.2" font-family="Helvetica,Arial,sans-serif" font-size="14.00">s2 vs ref.VCF</text>
</g>
<!-- c2r&#45;&gt;s2r -->
<g id="edge4" class="edge">
<title>c2r&#45;&gt;s2r</title>
<path fill="none" stroke="black" d="M376.49,-215.85C376.49,-178.99 376.49,-91.92 376.49,-46.96"/>
<polygon fill="black" stroke="black" points="379.99,-47.23 376.49,-37.23 372.99,-47.23 379.99,-47.23"/>
</g>
<!-- s3r -->
<g id="node12" class="node">
<title>s3r</title>
<ellipse fill="none" stroke="black" cx="664.49" cy="-18" rx="63.53" ry="18"/>
<text text-anchor="middle" x="664.49" y="-12.2" font-family="Helvetica,Arial,sans-serif" font-size="14.00">s3 vs ref.VCF</text>
</g>
<!-- c3r&#45;&gt;s3r -->
<g id="edge6" class="edge">
<title>c3r&#45;&gt;s3r</title>
<path fill="none" stroke="black" d="M606.54,-215.85C617.42,-178.91 643.13,-91.55 656.35,-46.67"/>
<polygon fill="black" stroke="black" points="659.95,-47.81 659.42,-37.23 653.24,-45.84 659.95,-47.81"/>
</g>
<!-- s21 -->
<g id="node13" class="node">
<title>s21</title>
<ellipse fill="none" stroke="black" cx="65.49" cy="-18" rx="62.56" ry="18"/>
<text text-anchor="middle" x="65.49" y="-12.2" font-family="Helvetica,Arial,sans-serif" font-size="14.00">s2 vs s1.VCF</text>
</g>
<!-- c21&#45;&gt;s21 -->
<g id="edge14" class="edge">
<title>c21&#45;&gt;s21</title>
<path fill="none" stroke="black" d="M65.49,-71.7C65.49,-64.24 65.49,-55.32 65.49,-46.97"/>
<polygon fill="black" stroke="black" points="68.99,-47.1 65.49,-37.1 61.99,-47.1 68.99,-47.1"/>
</g>
<!-- s31 -->
<g id="node14" class="node">
<title>s31</title>
<ellipse fill="none" stroke="black" cx="520.49" cy="-18" rx="62.56" ry="18"/>
<text text-anchor="middle" x="520.49" y="-12.2" font-family="Helvetica,Arial,sans-serif" font-size="14.00">s3 vs s1.VCF</text>
</g>
<!-- c31&#45;&gt;s31 -->
<g id="edge16" class="edge">
<title>c31&#45;&gt;s31</title>
<path fill="none" stroke="black" d="M520.49,-71.7C520.49,-64.24 520.49,-55.32 520.49,-46.97"/>
<polygon fill="black" stroke="black" points="523.99,-47.1 520.49,-37.1 516.99,-47.1 523.99,-47.1"/>
</g>
<!-- s1cons&#45;&gt;c21 -->
<g id="edge11" class="edge">
<title>s1cons&#45;&gt;c21</title>
<path fill="none" stroke="black" d="M115.93,-143.7C107.9,-135.3 98.1,-125.07 89.29,-115.86"/>
<polygon fill="black" stroke="black" points="92.31,-113.91 82.86,-109.1 87.25,-118.75 92.31,-113.91"/>
</g>
<!-- s1cons&#45;&gt;c31 -->
<g id="edge12" class="edge">
<title>s1cons&#45;&gt;c31</title>
<path fill="none" stroke="black" d="M206.84,-147.59C279.43,-134.49 388.67,-114.78 457.21,-102.42"/>
<polygon fill="black" stroke="black" points="457.63,-105.72 466.85,-100.5 456.38,-98.83 457.63,-105.72"/>
</g>
</g>
</svg>
