<?xml version="1.0" encoding="UTF-8" standalone="no"?>
<!DOCTYPE svg PUBLIC "-//W3C//DTD SVG 1.1//EN"
 "http://www.w3.org/Graphics/SVG/1.1/DTD/svg11.dtd">
<!-- Generated by graphviz version 8.1.0 (20230707.0739)
 -->
<!-- Title: mygraph Pages: 1 -->
<svg width="756pt" height="350pt"
 viewBox="0.00 0.00 756.12 349.74" xmlns="http://www.w3.org/2000/svg" xmlns:xlink="http://www.w3.org/1999/xlink">
<g id="graph0" class="graph" transform="scale(1 1) rotate(0) translate(4 345.74)">
<title>mygraph</title>
<polygon fill="white" stroke="none" points="-4,4 -4,-345.74 752.12,-345.74 752.12,4 -4,4"/>
<!-- reference -->
<g id="node1" class="node">
<title>reference</title>
<ellipse fill="none" stroke="black" cx="501.94" cy="-314.87" rx="47.45" ry="18"/>
<text text-anchor="middle" x="501.94" y="-309.07" font-family="Helvetica,Arial,sans-serif" font-size="14.00">reference</text>
</g>
<!-- c1r -->
<g id="node5" class="node">
<title>c1r</title>
<polygon fill="none" stroke="black" points="242.19,-252 137.69,-252 137.69,-216 242.19,-216 242.19,-252"/>
<text text-anchor="middle" x="189.94" y="-228.2" font-family="Helvetica,Arial,sans-serif" font-size="14.00">calling pipeline</text>
</g>
<!-- reference&#45;&gt;c1r -->
<g id="edge7" class="edge">
<title>reference&#45;&gt;c1r</title>
<path fill="none" stroke="black" d="M474.31,-299.84C465.14,-295.59 454.76,-291.2 444.94,-288 381.14,-267.17 305.59,-252.68 253.37,-244.18"/>
<polygon fill="black" stroke="black" points="254.02,-240.58 243.59,-242.45 252.92,-247.49 254.02,-240.58"/>
</g>
<!-- c2r -->
<g id="node6" class="node">
<title>c2r</title>
<polygon fill="none" stroke="black" points="429.19,-252 324.69,-252 324.69,-216 429.19,-216 429.19,-252"/>
<text text-anchor="middle" x="376.94" y="-228.2" font-family="Helvetica,Arial,sans-serif" font-size="14.00">calling pipeline</text>
</g>
<!-- reference&#45;&gt;c2r -->
<g id="edge8" class="edge">
<title>reference&#45;&gt;c2r</title>
<path fill="none" stroke="black" d="M478.14,-298.85C459.96,-287.38 434.57,-271.36 413.77,-258.24"/>
<polygon fill="black" stroke="black" points="415.91,-254.82 405.58,-252.44 412.17,-260.74 415.91,-254.82"/>
</g>
<!-- c3r -->
<g id="node7" class="node">
<title>c3r</title>
<polygon fill="none" stroke="black" points="663.19,-252 558.69,-252 558.69,-216 663.19,-216 663.19,-252"/>
<text text-anchor="middle" x="610.94" y="-228.2" font-family="Helvetica,Arial,sans-serif" font-size="14.00">calling pipeline</text>
</g>
<!-- reference&#45;&gt;c3r -->
<g id="edge9" class="edge">
<title>reference&#45;&gt;c3r</title>
<path fill="none" stroke="black" d="M523.22,-298.48C538.98,-287.07 560.73,-271.33 578.63,-258.38"/>
<polygon fill="black" stroke="black" points="580.02,-260.97 586.07,-252.27 575.92,-255.3 580.02,-260.97"/>
</g>
<!-- s1 -->
<g id="node2" class="node">
<title>s1</title>
<ellipse fill="none" stroke="black" cx="179.94" cy="-314.87" rx="83.97" ry="26.87"/>
<text text-anchor="middle" x="179.94" y="-316.57" font-family="Helvetica,Arial,sans-serif" font-size="14.00">Sample1.FASTQ</text>
<text text-anchor="middle" x="179.94" y="-301.57" font-family="Helvetica,Arial,sans-serif" font-size="14.00">(WT)</text>
</g>
<!-- s1&#45;&gt;c1r -->
<g id="edge1" class="edge">
<title>s1&#45;&gt;c1r</title>
<path fill="none" stroke="black" d="M183.27,-287.61C184.28,-279.69 185.38,-270.97 186.4,-262.94"/>
<polygon fill="black" stroke="black" points="189.98,-263.58 187.76,-253.22 183.03,-262.7 189.98,-263.58"/>
</g>
<!-- s2 -->
<g id="node3" class="node">
<title>s2</title>
<ellipse fill="none" stroke="black" cx="358.94" cy="-314.87" rx="77.18" ry="18"/>
<text text-anchor="middle" x="358.94" y="-309.07" font-family="Helvetica,Arial,sans-serif" font-size="14.00">Sample2.FASTQ</text>
</g>
<!-- s2&#45;&gt;c2r -->
<g id="edge3" class="edge">
<title>s2&#45;&gt;c2r</title>
<path fill="none" stroke="black" d="M362.85,-296.76C365.1,-286.9 367.98,-274.28 370.55,-263.01"/>
<polygon fill="black" stroke="black" points="374.17,-263.88 372.98,-253.35 367.35,-262.32 374.17,-263.88"/>
</g>
<!-- c21 -->
<g id="node8" class="node">
<title>c21</title>
<polygon fill="none" stroke="black" points="119.19,-108 14.69,-108 14.69,-72 119.19,-72 119.19,-108"/>
<text text-anchor="middle" x="66.94" y="-84.2" font-family="Helvetica,Arial,sans-serif" font-size="14.00">calling pipeline</text>
</g>
<!-- s2&#45;&gt;c21 -->
<g id="edge13" class="edge">
<title>s2&#45;&gt;c21</title>
<path fill="none" stroke="black" d="M313.98,-299.91C300.79,-295.93 286.32,-291.68 272.94,-288 209.34,-270.49 187.37,-282.63 128.94,-252 85.99,-229.49 66.95,-224.18 46.94,-180 38.04,-160.34 44.28,-136.4 52.07,-118.3"/>
<polygon fill="black" stroke="black" points="55.64,-119.93 56.73,-109.39 49.3,-116.95 55.64,-119.93"/>
</g>
<!-- s3 -->
<g id="node4" class="node">
<title>s3</title>
<ellipse fill="none" stroke="black" cx="670.94" cy="-314.87" rx="77.18" ry="18"/>
<text text-anchor="middle" x="670.94" y="-309.07" font-family="Helvetica,Arial,sans-serif" font-size="14.00">Sample3.FASTQ</text>
</g>
<!-- s3&#45;&gt;c3r -->
<g id="edge5" class="edge">
<title>s3&#45;&gt;c3r</title>
<path fill="none" stroke="black" d="M657.92,-296.76C649.96,-286.29 639.61,-272.69 630.66,-260.92"/>
<polygon fill="black" stroke="black" points="632.99,-259.19 624.14,-253.35 627.41,-263.43 632.99,-259.19"/>
</g>
<!-- c31 -->
<g id="node9" class="node">
<title>c31</title>
<polygon fill="none" stroke="black" points="577.19,-108 472.69,-108 472.69,-72 577.19,-72 577.19,-108"/>
<text text-anchor="middle" x="524.94" y="-84.2" font-family="Helvetica,Arial,sans-serif" font-size="14.00">calling pipeline</text>
</g>
<!-- s3&#45;&gt;c31 -->
<g id="edge15" class="edge">
<title>s3&#45;&gt;c31</title>
<path fill="none" stroke="black" d="M675.39,-296.67C679.7,-276.37 683.99,-242.07 671.94,-216 650.72,-170.08 603.38,-134.84 568.13,-113.66"/>
<polygon fill="black" stroke="black" points="570.39,-110.35 559.99,-108.32 566.86,-116.39 570.39,-110.35"/>
</g>
<!-- s1r -->
<g id="node10" class="node">
<title>s1r</title>
<ellipse fill="none" stroke="black" cx="231.94" cy="-18" rx="63.53" ry="18"/>
<text text-anchor="middle" x="231.94" y="-12.2" font-family="Helvetica,Arial,sans-serif" font-size="14.00">s1 vs ref.VCF</text>
</g>
<!-- c1r&#45;&gt;s1r -->
<g id="edge2" class="edge">
<title>c1r&#45;&gt;s1r</title>
<path fill="none" stroke="black" d="M242.46,-220.63C263.82,-212.73 286.39,-200.07 298.94,-180 327.22,-134.81 284.9,-75.62 255.73,-43.06"/>
<polygon fill="black" stroke="black" points="258.99,-41.36 249.64,-36.39 253.85,-46.11 258.99,-41.36"/>
</g>
<!-- s1cons -->
<g id="node15" class="node">
<title>s1cons</title>
<ellipse fill="none" stroke="black" stroke-dasharray="5,2" cx="172.94" cy="-162" rx="116.66" ry="18"/>
<text text-anchor="middle" x="172.94" y="-156.2" font-family="Helvetica,Arial,sans-serif" font-size="14.00">s1 (WT) consensus.FASTA</text>
</g>
<!-- c1r&#45;&gt;s1cons -->
<g id="edge10" class="edge">
<title>c1r&#45;&gt;s1cons</title>
<path fill="none" stroke="black" stroke-dasharray="5,2" d="M185.74,-215.7C183.91,-208.15 181.72,-199.12 179.67,-190.68"/>
<polygon fill="black" stroke="black" points="182.86,-190 177.1,-181.1 176.06,-191.65 182.86,-190"/>
</g>
<!-- s2r -->
<g id="node11" class="node">
<title>s2r</title>
<ellipse fill="none" stroke="black" cx="376.94" cy="-18" rx="63.53" ry="18"/>
<text text-anchor="middle" x="376.94" y="-12.2" font-family="Helvetica,Arial,sans-serif" font-size="14.00">s2 vs ref.VCF</text>
</g>
<!-- c2r&#45;&gt;s2r -->
<g id="edge4" class="edge">
<title>c2r&#45;&gt;s2r</title>
<path fill="none" stroke="black" d="M376.94,-215.85C376.94,-178.99 376.94,-91.92 376.94,-46.96"/>
<polygon fill="black" stroke="black" points="380.44,-47.23 376.94,-37.23 373.44,-47.23 380.44,-47.23"/>
</g>
<!-- s3r -->
<g id="node12" class="node">
<title>s3r</title>
<ellipse fill="none" stroke="black" cx="672.94" cy="-18" rx="63.53" ry="18"/>
<text text-anchor="middle" x="672.94" y="-12.2" font-family="Helvetica,Arial,sans-serif" font-size="14.00">s3 vs ref.VCF</text>
</g>
<!-- c3r&#45;&gt;s3r -->
<g id="edge6" class="edge">
<title>c3r&#45;&gt;s3r</title>
<path fill="none" stroke="black" d="M615.91,-215.85C626.62,-178.91 651.92,-91.55 664.93,-46.67"/>
<polygon fill="black" stroke="black" points="668.53,-47.81 667.95,-37.23 661.81,-45.86 668.53,-47.81"/>
</g>
<!-- s21 -->
<g id="node13" class="node">
<title>s21</title>
<ellipse fill="none" stroke="black" cx="66.94" cy="-18" rx="66.94" ry="18"/>
<text text-anchor="middle" x="66.94" y="-12.2" font-family="Helvetica,Arial,sans-serif" font-size="14.00">s2 vs WT.VCF</text>
</g>
<!-- c21&#45;&gt;s21 -->
<g id="edge14" class="edge">
<title>c21&#45;&gt;s21</title>
<path fill="none" stroke="black" d="M66.94,-71.7C66.94,-64.24 66.94,-55.32 66.94,-46.97"/>
<polygon fill="black" stroke="black" points="70.44,-47.1 66.94,-37.1 63.44,-47.1 70.44,-47.1"/>
</g>
<!-- s31 -->
<g id="node14" class="node">
<title>s31</title>
<ellipse fill="none" stroke="black" cx="524.94" cy="-18" rx="66.94" ry="18"/>
<text text-anchor="middle" x="524.94" y="-12.2" font-family="Helvetica,Arial,sans-serif" font-size="14.00">s3 vs WT.VCF</text>
</g>
<!-- c31&#45;&gt;s31 -->
<g id="edge16" class="edge">
<title>c31&#45;&gt;s31</title>
<path fill="none" stroke="black" d="M524.94,-71.7C524.94,-64.24 524.94,-55.32 524.94,-46.97"/>
<polygon fill="black" stroke="black" points="528.44,-47.1 524.94,-37.1 521.44,-47.1 528.44,-47.1"/>
</g>
<!-- s1cons&#45;&gt;c21 -->
<g id="edge11" class="edge">
<title>s1cons&#45;&gt;c21</title>
<path fill="none" stroke="black" d="M147.28,-144.05C133.69,-135.07 116.78,-123.91 101.99,-114.14"/>
<polygon fill="black" stroke="black" points="104.38,-110.87 94.1,-108.28 100.52,-116.71 104.38,-110.87"/>
</g>
<!-- s1cons&#45;&gt;c31 -->
<g id="edge12" class="edge">
<title>s1cons&#45;&gt;c31</title>
<path fill="none" stroke="black" d="M242.49,-147.17C306.28,-134.48 399.96,-115.86 461.68,-103.58"/>
<polygon fill="black" stroke="black" points="462.32,-106.82 471.44,-101.44 460.95,-99.96 462.32,-106.82"/>
</g>
</g>
</svg>
