<?xml version="1.0" encoding="UTF-8" standalone="no"?>
<!DOCTYPE svg PUBLIC "-//W3C//DTD SVG 1.1//EN"
 "http://www.w3.org/Graphics/SVG/1.1/DTD/svg11.dtd">
<!-- Generated by graphviz version 8.1.0 (20230707.0739)
 -->
<!-- Title: mygraph Pages: 1 -->
<svg width="666pt" height="551pt"
 viewBox="0.00 0.00 666.06 551.00" xmlns="http://www.w3.org/2000/svg" xmlns:xlink="http://www.w3.org/1999/xlink">
<g id="graph0" class="graph" transform="scale(1 1) rotate(0) translate(4 547)">
<title>mygraph</title>
<polygon fill="white" stroke="none" points="-4,4 -4,-547 662.06,-547 662.06,4 -4,4"/>
<g id="clust1" class="cluster">
<title>cluster_1</title>
<polygon fill="none" stroke="black" points="102.06,-64 102.06,-499 650.06,-499 650.06,-64 102.06,-64"/>
<text text-anchor="middle" x="154.31" y="-481.7" font-family="Helvetica,Arial,sans-serif" font-size="14.00">calling pipeline</text>
</g>
<!-- consensus.FASTQ -->
<g id="node1" class="node">
<title>consensus.FASTQ</title>
<ellipse fill="none" stroke="black" cx="205.06" cy="-306" rx="84.01" ry="18"/>
<text text-anchor="middle" x="205.06" y="-300.2" font-family="Helvetica,Arial,sans-serif" font-size="14.00">consensus.FASTQ</text>
</g>
<!-- minimap2 call -->
<g id="node6" class="node">
<title>minimap2 call</title>
<polygon fill="none" stroke="black" points="300.35,-252 148.76,-252 109.76,-216 261.35,-216 300.35,-252"/>
<text text-anchor="middle" x="205.06" y="-228.2" font-family="Helvetica,Arial,sans-serif" font-size="14.00">minimap2 call</text>
</g>
<!-- consensus.FASTQ&#45;&gt;minimap2 call -->
<g id="edge3" class="edge">
<title>consensus.FASTQ&#45;&gt;minimap2 call</title>
<path fill="none" stroke="black" d="M205.06,-287.7C205.06,-280.24 205.06,-271.32 205.06,-262.97"/>
<polygon fill="black" stroke="black" points="208.56,-263.1 205.06,-253.1 201.56,-263.1 208.56,-263.1"/>
</g>
<!-- consensus.FASTA -->
<g id="node11" class="node">
<title>consensus.FASTA</title>
<ellipse fill="none" stroke="black" stroke-dasharray="5,2" cx="82.06" cy="-18" rx="82.06" ry="18"/>
<text text-anchor="middle" x="82.06" y="-12.2" font-family="Helvetica,Arial,sans-serif" font-size="14.00">consensus.FASTA</text>
</g>
<!-- consensus.FASTQ&#45;&gt;consensus.FASTA -->
<g id="edge9" class="edge">
<title>consensus.FASTQ&#45;&gt;consensus.FASTA</title>
<path fill="none" stroke="black" stroke-dasharray="5,2" d="M154.81,-291.24C134.79,-283.13 113.58,-270.69 101.06,-252 58.79,-188.93 68.15,-93.61 76.25,-46.86"/>
<polygon fill="black" stroke="black" points="79.82,-47.8 78.2,-37.33 72.94,-46.53 79.82,-47.8"/>
</g>
<!-- medaka.VCF -->
<g id="node2" class="node">
<title>medaka.VCF</title>
<ellipse fill="none" stroke="black" cx="419.06" cy="-162" rx="62.07" ry="18"/>
<text text-anchor="middle" x="419.06" y="-156.2" font-family="Helvetica,Arial,sans-serif" font-size="14.00">medaka.VCF</text>
</g>
<!-- merge vcfs -->
<g id="node7" class="node">
<title>merge vcfs</title>
<polygon fill="none" stroke="black" points="364.91,-108 239.47,-108 207.2,-72 332.64,-72 364.91,-108"/>
<text text-anchor="middle" x="286.06" y="-84.2" font-family="Helvetica,Arial,sans-serif" font-size="14.00">merge vcfs</text>
</g>
<!-- medaka.VCF&#45;&gt;merge vcfs -->
<g id="edge7" class="edge">
<title>medaka.VCF&#45;&gt;merge vcfs</title>
<path fill="none" stroke="black" d="M389.87,-145.64C371.86,-136.16 348.46,-123.85 328.44,-113.31"/>
<polygon fill="black" stroke="black" points="330.39,-109.85 319.91,-108.29 327.13,-116.05 330.39,-109.85"/>
</g>
<!-- consensus.VCF -->
<g id="node3" class="node">
<title>consensus.VCF</title>
<ellipse fill="none" stroke="black" cx="246.06" cy="-162" rx="72.31" ry="18"/>
<text text-anchor="middle" x="246.06" y="-156.2" font-family="Helvetica,Arial,sans-serif" font-size="14.00">consensus.VCF</text>
</g>
<!-- consensus.VCF&#45;&gt;merge vcfs -->
<g id="edge5" class="edge">
<title>consensus.VCF&#45;&gt;merge vcfs</title>
<path fill="none" stroke="black" d="M255.94,-143.7C260.45,-135.81 265.88,-126.3 270.89,-117.55"/>
<polygon fill="black" stroke="black" points="274.36,-119.52 276.28,-109.1 268.28,-116.05 274.36,-119.52"/>
</g>
<!-- FLYE -->
<g id="node4" class="node">
<title>FLYE</title>
<polygon fill="none" stroke="black" points="306.03,-468 232.89,-468 214.08,-432 287.22,-432 306.03,-468"/>
<text text-anchor="middle" x="260.06" y="-444.2" font-family="Helvetica,Arial,sans-serif" font-size="14.00">FLYE</text>
</g>
<!-- MEDAKA polish -->
<g id="node5" class="node">
<title>MEDAKA polish</title>
<polygon fill="none" stroke="black" points="351.21,-396 179.16,-396 134.9,-360 306.95,-360 351.21,-396"/>
<text text-anchor="middle" x="243.06" y="-372.2" font-family="Helvetica,Arial,sans-serif" font-size="14.00">MEDAKA polish</text>
</g>
<!-- FLYE&#45;&gt;MEDAKA polish -->
<g id="edge1" class="edge">
<title>FLYE&#45;&gt;MEDAKA polish</title>
<path fill="none" stroke="black" d="M255.85,-431.7C254.02,-424.15 251.83,-415.12 249.78,-406.68"/>
<polygon fill="black" stroke="black" points="252.97,-406 247.21,-397.1 246.17,-407.65 252.97,-406"/>
</g>
<!-- MEDAKA polish&#45;&gt;consensus.FASTQ -->
<g id="edge2" class="edge">
<title>MEDAKA polish&#45;&gt;consensus.FASTQ</title>
<path fill="none" stroke="black" d="M233.66,-359.7C229.38,-351.81 224.22,-342.3 219.47,-333.55"/>
<polygon fill="black" stroke="black" points="222.19,-332.22 214.34,-325.1 216.04,-335.56 222.19,-332.22"/>
</g>
<!-- minimap2 call&#45;&gt;consensus.VCF -->
<g id="edge4" class="edge">
<title>minimap2 call&#45;&gt;consensus.VCF</title>
<path fill="none" stroke="black" d="M215.19,-215.7C219.81,-207.81 225.38,-198.3 230.51,-189.55"/>
<polygon fill="black" stroke="black" points="234,-191.5 236.04,-181.1 227.96,-187.96 234,-191.5"/>
</g>
<!-- combined.vcf -->
<g id="node12" class="node">
<title>combined.vcf</title>
<ellipse fill="none" stroke="black" cx="286.06" cy="-18" rx="62.56" ry="18"/>
<text text-anchor="middle" x="286.06" y="-12.2" font-family="Helvetica,Arial,sans-serif" font-size="14.00">combined.vcf</text>
</g>
<!-- merge vcfs&#45;&gt;combined.vcf -->
<g id="edge13" class="edge">
<title>merge vcfs&#45;&gt;combined.vcf</title>
<path fill="none" stroke="black" d="M286.06,-71.7C286.06,-64.24 286.06,-55.32 286.06,-46.97"/>
<polygon fill="black" stroke="black" points="289.56,-47.1 286.06,-37.1 282.56,-47.1 289.56,-47.1"/>
</g>
<!-- MEDAKA haploid_variant -->
<g id="node8" class="node">
<title>MEDAKA haploid_variant</title>
<polygon fill="none" stroke="black" points="641.82,-252 384.49,-252 318.29,-216 575.62,-216 641.82,-252"/>
<text text-anchor="middle" x="480.06" y="-228.2" font-family="Helvetica,Arial,sans-serif" font-size="14.00">MEDAKA haploid_variant</text>
</g>
<!-- MEDAKA haploid_variant&#45;&gt;medaka.VCF -->
<g id="edge6" class="edge">
<title>MEDAKA haploid_variant&#45;&gt;medaka.VCF</title>
<path fill="none" stroke="black" d="M464.98,-215.7C457.63,-207.27 448.66,-196.97 440.61,-187.73"/>
<polygon fill="black" stroke="black" points="442.75,-185.86 433.54,-180.62 437.47,-190.46 442.75,-185.86"/>
</g>
<!-- sample.FASTQ -->
<g id="node9" class="node">
<title>sample.FASTQ</title>
<ellipse fill="none" stroke="black" cx="269.06" cy="-525" rx="70.84" ry="18"/>
<text text-anchor="middle" x="269.06" y="-519.2" font-family="Helvetica,Arial,sans-serif" font-size="14.00">sample.FASTQ</text>
</g>
<!-- sample.FASTQ&#45;&gt;FLYE -->
<g id="edge11" class="edge">
<title>sample.FASTQ&#45;&gt;FLYE</title>
<path fill="none" stroke="black" d="M266.92,-506.7C265.91,-498.49 264.67,-488.46 263.53,-479.19"/>
<polygon fill="black" stroke="black" points="266.9,-478.93 262.2,-469.43 259.95,-479.78 266.9,-478.93"/>
</g>
<!-- sample.FASTQ&#45;&gt;MEDAKA haploid_variant -->
<g id="edge10" class="edge">
<title>sample.FASTQ&#45;&gt;MEDAKA haploid_variant</title>
<path fill="none" stroke="black" d="M302.15,-508.75C306.76,-505.87 311.22,-502.61 315.06,-499 390.94,-427.59 446.11,-314.02 468.72,-262.28"/>
<polygon fill="black" stroke="black" points="472.32,-263.78 473.05,-253.22 465.88,-261.02 472.32,-263.78"/>
</g>
<!-- reference.FASTA -->
<g id="node10" class="node">
<title>reference.FASTA</title>
<ellipse fill="none" stroke="black" cx="468.06" cy="-525" rx="77.18" ry="18"/>
<text text-anchor="middle" x="468.06" y="-519.2" font-family="Helvetica,Arial,sans-serif" font-size="14.00">reference.FASTA</text>
</g>
<!-- reference.FASTA&#45;&gt;minimap2 call -->
<g id="edge8" class="edge">
<title>reference.FASTA&#45;&gt;minimap2 call</title>
<path fill="none" stroke="black" d="M459.7,-506.85C438.31,-464.47 377.57,-353.49 298.06,-288 284.04,-276.46 267.17,-266 251.67,-257.49"/>
<polygon fill="black" stroke="black" points="253.71,-254.07 243.24,-252.45 250.41,-260.25 253.71,-254.07"/>
</g>
<!-- reference.FASTA&#45;&gt;MEDAKA haploid_variant -->
<g id="edge12" class="edge">
<title>reference.FASTA&#45;&gt;MEDAKA haploid_variant</title>
<path fill="none" stroke="black" d="M468.77,-506.79C470.77,-458.71 476.42,-322.66 478.88,-263.29"/>
<polygon fill="black" stroke="black" points="482.41,-263.62 479.33,-253.49 475.42,-263.33 482.41,-263.62"/>
</g>
</g>
</svg>
